<?xml version="1.0" standalone="no"?>
<!DOCTYPE svg PUBLIC "-//W3C//DTD SVG 20010904//EN"
 "http://www.w3.org/TR/2001/REC-SVG-20010904/DTD/svg10.dtd">
<svg version="1.0" xmlns="http://www.w3.org/2000/svg"
 width="500.000000pt" height="500.000000pt" viewBox="0 0 500.000000 500.000000"
 preserveAspectRatio="xMidYMid meet">

<g transform="translate(0.000000,500.000000) scale(0.100000,-0.100000)"
fill="#000000" stroke="none">
<path d="M2335 3750 c-229 -36 -441 -139 -606 -297 -250 -237 -370 -531 -356
-868 12 -280 113 -523 298 -720 109 -114 191 -175 334 -245 198 -98 391 -134
599 -112 405 42 739 276 911 637 130 273 148 567 51 851 -104 308 -342 558
-645 680 -58 24 -142 50 -186 59 -94 20 -315 28 -400 15z m346 -75 c248 -43
492 -187 648 -383 79 -98 163 -267 198 -397 23 -89 26 -119 26 -265 1 -147 -2
-176 -26 -262 -29 -109 -86 -238 -143 -325 -56 -84 -193 -223 -280 -283 -349
-241 -823 -252 -1171 -27 -265 172 -435 429 -483 727 -15 96 -12 276 6 370 81
428 423 767 851 844 104 19 271 19 374 1z"/>
<path d="M2513 3335 c-89 -24 -169 -72 -257 -153 -47 -42 -126 -113 -176 -157
-171 -149 -190 -168 -230 -228 -22 -33 -52 -97 -66 -143 -23 -74 -26 -96 -22
-196 3 -95 9 -124 32 -183 57 -141 151 -245 281 -310 128 -64 264 -80 399 -45
105 27 187 73 266 148 36 35 86 79 112 98 26 20 62 52 80 73 18 20 57 54 86
75 137 99 232 288 232 461 0 187 -106 382 -263 485 -72 47 -199 91 -260 89
-40 -2 -39 -2 13 -9 130 -17 244 -75 339 -175 169 -178 207 -420 100 -639 -32
-65 -131 -186 -171 -207 -16 -9 -15 -2 11 49 57 114 76 257 50 384 -29 139
-130 284 -257 366 -98 63 -187 87 -317 86 -108 -1 -121 -4 -240 -50 l-20 -7
20 23 c68 79 217 154 335 169 56 7 59 9 20 9 -25 0 -69 -6 -97 -13z m110 -150
c204 -43 380 -216 433 -425 46 -184 -28 -443 -142 -499 -24 -11 -44 -17 -44
-13 0 4 10 34 21 67 102 307 -100 654 -427 731 -68 16 -205 15 -278 -2 l-29
-7 31 45 c64 93 262 140 435 103z m-461 -124 c-16 -29 -82 -70 -82 -52 0 10
81 80 92 81 4 0 0 -13 -10 -29z m307 -26 c35 -9 94 -31 130 -50 254 -133 367
-423 273 -697 -17 -50 -21 -54 -63 -65 -64 -17 -215 -16 -283 2 -202 53 -375
232 -416 432 -19 87 -8 235 21 308 23 58 25 60 74 71 71 17 189 16 264 -1z
m-343 -47 c-29 -103 -36 -143 -36 -213 0 -255 163 -475 406 -551 76 -24 96
-26 197 -22 61 3 120 9 131 13 16 7 17 6 6 -14 -6 -13 -9 -25 -6 -28 3 -3 11
7 18 22 6 15 30 35 52 46 l41 20 -52 -51 c-29 -28 -57 -49 -62 -45 -6 3 -15
-3 -20 -13 -22 -41 -186 -92 -296 -92 -332 1 -601 289 -571 611 13 140 77 283
144 318 48 26 56 26 48 -1z m-139 -95 c-49 -97 -62 -152 -62 -263 0 -84 5
-120 24 -178 57 -175 203 -321 376 -375 104 -33 274 -31 367 4 82 32 80 17 -6
-47 -237 -180 -538 -161 -746 46 -122 121 -170 236 -170 405 0 155 56 290 168
402 35 35 66 62 69 60 2 -3 -7 -27 -20 -54z"/>
</g>
</svg>
